<?xml version="1.0" standalone="no"?>
<!DOCTYPE svg PUBLIC "-//W3C//DTD SVG 20010904//EN"
 "http://www.w3.org/TR/2001/REC-SVG-20010904/DTD/svg10.dtd">
<svg version="1.0" xmlns="http://www.w3.org/2000/svg"
 width="310.000000pt" height="310.000000pt" viewBox="0 0 310.000000 310.000000"
 preserveAspectRatio="xMidYMid meet">
<metadata>
Created by potrace 1.10, written by Peter Selinger 2001-2011
</metadata>
<g transform="translate(0.000000,310.000000) scale(0.050000,-0.050000)"
fill="#000000" stroke="none">
<path d="M3477 5279 c-235 -36 -467 -180 -600 -373 -109 -159 -117 -217 -117
-892 0 -759 -20 -814 -298 -814 -206 0 -302 95 -302 299 0 336 -231 621 -504
621 -101 0 -103 -10 -92 -536 10 -508 33 -586 229 -778 431 -421 1240 -304
1485 214 l52 110 10 673 10 674 50 53 c148 158 403 146 514 -23 31 -48 36
-102 37 -386 0 -201 10 -364 25 -414 55 -186 309 -377 480 -363 l74 6 0 670
c0 654 -1 672 -45 768 -164 356 -579 558 -1008 491z m485 -78 c191 -57 386
-229 476 -421 l52 -110 6 -645 6 -645 -56 0 c-81 0 -246 84 -320 163 -112 117
-126 179 -126 545 0 184 -9 354 -21 386 -94 248 -443 286 -629 69 -38 -45 -41
-84 -50 -730 l-10 -683 -53 -100 c-353 -663 -1463 -549 -1615 166 -12 58 -22
281 -22 495 l0 389 55 0 c230 -2 445 -241 445 -494 0 -319 177 -492 437 -426
249 62 251 69 263 860 l10 670 56 114 c175 355 655 530 1096 397z"/>
<path d="M2370 4079 c-25 -76 -15 -679 11 -710 29 -35 122 -38 155 -5 34 34
34 698 0 732 -41 41 -151 30 -166 -17z"/>
<path d="M2203 2249 c-480 -131 -544 -776 -99 -997 262 -131 600 -12 717 252
186 418 -184 864 -618 745z m352 -294 c194 -195 53 -535 -221 -535 -298 0
-413 412 -162 583 101 68 290 45 383 -48z"/>
<path d="M3395 2259 c-630 -155 -524 -1061 124 -1059 135 1 263 55 366 155
l74 72 -100 58 -101 57 -60 -50 c-229 -193 -555 24 -489 325 45 205 323 299
478 163 l68 -60 93 52 c109 61 112 73 27 153 -123 115 -326 172 -480 134z"/>
<path d="M4435 2258 c-633 -149 -527 -1060 124 -1058 620 3 709 910 103 1053
-126 30 -124 30 -227 5z m257 -250 c182 -86 213 -369 56 -507 -203 -178 -508
-39 -508 232 0 233 237 377 452 275z"/>
<path d="M80 1735 l0 -515 115 0 115 0 -7 160 -6 160 116 0 c271 1 435 173
401 422 -27 201 -151 272 -489 281 l-245 7 0 -515z m471 256 c54 -54 60 -92
26 -157 -34 -64 -55 -73 -172 -74 l-105 0 0 140 0 140 101 0 c80 0 111 -10
150 -49z"/>
<path d="M959 2250 c0 0 -3 -232 -5 -515 l-4 -515 115 0 115 0 0 170 0 170 59
0 c52 0 68 -17 155 -170 l96 -170 126 0 c143 0 144 -22 -2 218 l-89 148 75 72
c139 133 147 324 19 470 -90 103 -193 122 -660 122z m481 -250 c108 -108 29
-240 -143 -240 l-117 0 0 140 0 140 110 0 c83 0 120 -10 150 -40z"/>
<path d="M5220 1738 l0 -518 119 0 119 0 -12 283 c-15 338 -26 339 217 -13
l187 -269 95 -1 96 0 -6 514 -5 515 -114 2 -115 2 -5 -287 -6 -286 -196 285
-195 285 -90 3 -89 4 0 -519z"/>
<path d="M2767 952 c-117 -100 -43 -312 110 -312 58 0 143 49 143 82 0 11 -20
6 -44 -11 -102 -71 -236 -9 -236 109 0 118 134 180 236 109 24 -17 44 -22 44
-11 0 80 -173 104 -253 34z"/>
<path d="M3120 841 c-35 -88 -60 -171 -54 -185 5 -15 18 -4 31 29 32 79 165
81 201 2 13 -29 29 -46 36 -40 7 7 3 33 -9 58 -12 25 -43 101 -68 170 -59 157
-60 157 -137 -34z m110 27 c42 -101 39 -108 -42 -108 -61 0 -70 6 -58 35 8 19
23 60 34 90 26 71 29 69 66 -17z"/>
<path d="M3385 955 c88 -136 87 -126 29 -209 -56 -82 -65 -106 -38 -106 9 0
37 37 63 82 l46 82 51 -86 c28 -48 55 -76 59 -63 4 13 -15 56 -42 97 l-50 73
51 78 c29 43 47 83 41 89 -6 6 -34 -22 -62 -63 l-50 -73 -46 72 c-26 39 -55
72 -64 72 -10 0 -4 -20 12 -45z"/>
<path d="M3660 819 c0 -116 7 -177 20 -169 11 7 20 88 20 181 0 99 -8 169 -20
169 -12 0 -20 -74 -20 -181z"/>
<path d="M3874 986 c-30 -48 -134 -332 -126 -341 6 -6 21 13 34 42 36 79 180
78 214 -2 44 -104 12 33 -40 169 -51 134 -66 158 -82 132z m53 -141 l33 -85
-70 0 c-39 0 -70 8 -70 18 0 24 61 168 68 159 3 -4 20 -45 39 -92z"/>
<path d="M4091 969 c-59 -60 -34 -113 73 -158 84 -35 101 -55 84 -99 -16 -43
-105 -41 -154 3 -37 34 -38 33 -31 -5 20 -105 217 -80 217 28 0 51 -12 63 -91
93 -73 28 -90 44 -85 77 7 47 87 69 122 34 40 -40 61 -23 24 18 -43 48 -115
52 -159 9z"/>
<path d="M4480 820 l0 -180 59 0 c135 0 219 66 220 173 2 124 -68 187 -208
187 l-71 0 0 -180z m219 87 c81 -103 16 -227 -120 -227 l-79 0 0 140 0 140 79
0 c61 0 87 -12 120 -53z"/>
<path d="M4887 971 c-143 -100 -74 -331 99 -331 80 0 174 97 174 180 0 132
-167 225 -273 151z m196 -44 c54 -49 50 -176 -7 -216 -102 -71 -236 -9 -236
109 0 119 155 187 243 107z"/>
<path d="M5371 969 c-62 -63 -23 -129 100 -169 56 -19 70 -33 65 -67 -8 -58
-104 -70 -160 -19 -39 35 -40 35 -33 -4 20 -105 217 -80 217 28 0 51 -12 63
-91 93 -73 28 -90 44 -85 77 7 47 87 69 122 34 40 -40 61 -23 24 18 -43 48
-115 52 -159 9z"/>
<path d="M5620 860 c0 -157 37 -220 130 -220 93 0 130 63 130 220 0 184 -37
181 -44 -3 -7 -158 -31 -193 -123 -170 -51 13 -53 18 -53 163 0 87 -8 150 -20
150 -11 0 -20 -60 -20 -140z"/>
<path d="M5954 977 c-9 -17 -13 -98 -9 -180 l7 -147 94 -6 c56 -4 94 2 94 15
0 12 -36 21 -79 21 l-79 0 -6 165 c-4 101 -12 152 -22 132z"/>
</g>
</svg>
